<svg width="260" height="79" viewBox="0 0 260 79" fill="none" xmlns="http://www.w3.org/2000/svg">
<path d="M12 7H30.6328C35.6719 7 39.5391 7.39551 42.2344 8.18652C44.959 8.97754 46.9951 10.1201 48.3428 11.6143C49.7197 13.1084 50.6426 14.9248 51.1113 17.0635C51.6094 19.1729 51.8584 22.4541 51.8584 26.9072V33.1035C51.8584 37.6445 51.3896 40.9551 50.4521 43.0352C49.5146 45.1152 47.7861 46.7119 45.2666 47.8252C42.7764 48.9385 39.5098 49.4951 35.4668 49.4951H30.501V78.1475H12V7ZM30.501 19.1729V37.2783C31.0283 37.3076 31.4824 37.3223 31.8633 37.3223C33.5625 37.3223 34.7344 36.9121 35.3789 36.0918C36.0527 35.2422 36.3896 33.499 36.3896 30.8623V25.0176C36.3896 22.5859 36.0088 21.0039 35.2471 20.2715C34.4854 19.5391 32.9033 19.1729 30.501 19.1729ZM74.9297 7V16.2725H56.6484V7H74.9297ZM74.9297 19.832V78.1475H56.6484V19.832H74.9297ZM123.182 7V78.1475H106.966L97.3418 45.8037V78.1475H81.873V7H97.3418L107.713 39.0361V7H123.182ZM171.961 7V78.1475H155.745L146.121 45.8037V78.1475H130.652V7H146.121L156.492 39.0361V7H171.961ZM179.432 7H210.281V21.2383H197.933V34.7295H209.49V48.2646H197.933V63.9092H211.512V78.1475H179.432V7ZM216.873 7H230.716C239.651 7 245.687 7.41016 248.821 8.23047C251.985 9.05078 254.388 10.3984 256.028 12.2734C257.669 14.1484 258.694 16.2432 259.104 18.5576C259.515 20.8428 259.72 25.3545 259.72 32.0928V57.0098C259.72 63.3965 259.412 67.6738 258.797 69.8418C258.211 71.9805 257.171 73.665 255.677 74.8955C254.183 76.0967 252.337 76.9463 250.14 77.4443C247.942 77.9131 244.632 78.1475 240.208 78.1475H216.873V7ZM235.374 19.1729V65.9746C238.04 65.9746 239.681 65.4473 240.296 64.3926C240.911 63.3086 241.219 60.3936 241.219 55.6475V28.0059C241.219 24.7832 241.116 22.7178 240.911 21.8096C240.706 20.9014 240.237 20.2422 239.505 19.832C238.772 19.3926 237.396 19.1729 235.374 19.1729Z" fill="black"/>
<mask id="path-2-outside-1_0_1" maskUnits="userSpaceOnUse" x="-0.691406" y="-0.852539" width="251" height="74" fill="black">
<rect fill="white" x="-0.691406" y="-0.852539" width="251" height="74"/>
<path d="M1 1H19.6328C24.6719 1 28.5391 1.39551 31.2344 2.18652C33.959 2.97754 35.9951 4.12012 37.3428 5.61426C38.7197 7.1084 39.6426 8.9248 40.1113 11.0635C40.6094 13.1729 40.8584 16.4541 40.8584 20.9072V27.1035C40.8584 31.6445 40.3896 34.9551 39.4521 37.0352C38.5146 39.1152 36.7861 40.7119 34.2666 41.8252C31.7764 42.9385 28.5098 43.4951 24.4668 43.4951H19.501V72.1475H1V1ZM19.501 13.1729V31.2783C20.0283 31.3076 20.4824 31.3223 20.8633 31.3223C22.5625 31.3223 23.7344 30.9121 24.3789 30.0918C25.0527 29.2422 25.3896 27.499 25.3896 24.8623V19.0176C25.3896 16.5859 25.0088 15.0039 24.2471 14.2715C23.4854 13.5391 21.9033 13.1729 19.501 13.1729ZM63.9297 1V10.2725H45.6484V1H63.9297ZM63.9297 13.832V72.1475H45.6484V13.832H63.9297ZM112.182 1V72.1475H95.9658L86.3418 39.8037V72.1475H70.873V1H86.3418L96.7129 33.0361V1H112.182ZM160.961 1V72.1475H144.745L135.121 39.8037V72.1475H119.652V1H135.121L145.492 33.0361V1H160.961ZM168.432 1H199.281V15.2383H186.933V28.7295H198.49V42.2646H186.933V57.9092H200.512V72.1475H168.432V1ZM205.873 1H219.716C228.651 1 234.687 1.41016 237.821 2.23047C240.985 3.05078 243.388 4.39844 245.028 6.27344C246.669 8.14844 247.694 10.2432 248.104 12.5576C248.515 14.8428 248.72 19.3545 248.72 26.0928V51.0098C248.72 57.3965 248.412 61.6738 247.797 63.8418C247.211 65.9805 246.171 67.665 244.677 68.8955C243.183 70.0967 241.337 70.9463 239.14 71.4443C236.942 71.9131 233.632 72.1475 229.208 72.1475H205.873V1ZM224.374 13.1729V59.9746C227.04 59.9746 228.681 59.4473 229.296 58.3926C229.911 57.3086 230.219 54.3936 230.219 49.6475V22.0059C230.219 18.7832 230.116 16.7178 229.911 15.8096C229.706 14.9014 229.237 14.2422 228.505 13.832C227.772 13.3926 226.396 13.1729 224.374 13.1729Z"/>
</mask>
<path d="M1 1H19.6328C24.6719 1 28.5391 1.39551 31.2344 2.18652C33.959 2.97754 35.9951 4.12012 37.3428 5.61426C38.7197 7.1084 39.6426 8.9248 40.1113 11.0635C40.6094 13.1729 40.8584 16.4541 40.8584 20.9072V27.1035C40.8584 31.6445 40.3896 34.9551 39.4521 37.0352C38.5146 39.1152 36.7861 40.7119 34.2666 41.8252C31.7764 42.9385 28.5098 43.4951 24.4668 43.4951H19.501V72.1475H1V1ZM19.501 13.1729V31.2783C20.0283 31.3076 20.4824 31.3223 20.8633 31.3223C22.5625 31.3223 23.7344 30.9121 24.3789 30.0918C25.0527 29.2422 25.3896 27.499 25.3896 24.8623V19.0176C25.3896 16.5859 25.0088 15.0039 24.2471 14.2715C23.4854 13.5391 21.9033 13.1729 19.501 13.1729ZM63.9297 1V10.2725H45.6484V1H63.9297ZM63.9297 13.832V72.1475H45.6484V13.832H63.9297ZM112.182 1V72.1475H95.9658L86.3418 39.8037V72.1475H70.873V1H86.3418L96.7129 33.0361V1H112.182ZM160.961 1V72.1475H144.745L135.121 39.8037V72.1475H119.652V1H135.121L145.492 33.0361V1H160.961ZM168.432 1H199.281V15.2383H186.933V28.7295H198.49V42.2646H186.933V57.9092H200.512V72.1475H168.432V1ZM205.873 1H219.716C228.651 1 234.687 1.41016 237.821 2.23047C240.985 3.05078 243.388 4.39844 245.028 6.27344C246.669 8.14844 247.694 10.2432 248.104 12.5576C248.515 14.8428 248.72 19.3545 248.72 26.0928V51.0098C248.72 57.3965 248.412 61.6738 247.797 63.8418C247.211 65.9805 246.171 67.665 244.677 68.8955C243.183 70.0967 241.337 70.9463 239.14 71.4443C236.942 71.9131 233.632 72.1475 229.208 72.1475H205.873V1ZM224.374 13.1729V59.9746C227.04 59.9746 228.681 59.4473 229.296 58.3926C229.911 57.3086 230.219 54.3936 230.219 49.6475V22.0059C230.219 18.7832 230.116 16.7178 229.911 15.8096C229.706 14.9014 229.237 14.2422 228.505 13.832C227.772 13.3926 226.396 13.1729 224.374 13.1729Z" fill="#A985FF"/>
<path d="M1 1V0H0V1H1ZM31.2344 2.18652L30.9528 3.14606L30.9556 3.14687L31.2344 2.18652ZM37.3428 5.61426L36.6002 6.28407L36.6074 6.29194L37.3428 5.61426ZM40.1113 11.0635L39.1345 11.2776L39.1362 11.2854L39.1381 11.2933L40.1113 11.0635ZM34.2666 41.8252L33.8624 40.9105L33.8585 40.9123L34.2666 41.8252ZM19.501 43.4951V42.4951H18.501V43.4951H19.501ZM19.501 72.1475V73.1475H20.501V72.1475H19.501ZM1 72.1475H0V73.1475H1V72.1475ZM19.501 13.1729V12.1729H18.501V13.1729H19.501ZM19.501 31.2783H18.501V32.2243L19.4455 32.2768L19.501 31.2783ZM24.3789 30.0918L23.5954 29.4704L23.5926 29.474L24.3789 30.0918ZM1 1V2H19.6328V1V0H1V1ZM19.6328 1V2C24.6393 2 28.3942 2.39516 30.9528 3.14606L31.2344 2.18652L31.516 1.22699C28.684 0.395859 24.7044 0 19.6328 0V1ZM31.2344 2.18652L30.9556 3.14687C33.5714 3.90631 35.4182 4.97352 36.6002 6.28403L37.3428 5.61426L38.0853 4.94449C36.5721 3.26672 34.3466 2.04877 31.5132 1.22617L31.2344 2.18652ZM37.3428 5.61426L36.6074 6.29194C37.8549 7.64561 38.7007 9.29821 39.1345 11.2776L40.1113 11.0635L41.0881 10.8494C40.5845 8.5514 39.5845 6.57118 38.0781 4.93658L37.3428 5.61426ZM40.1113 11.0635L39.1381 11.2933C39.6081 13.2839 39.8584 16.4682 39.8584 20.9072H40.8584H41.8584C41.8584 16.44 41.6106 13.0618 41.0846 10.8337L40.1113 11.0635ZM40.8584 20.9072H39.8584V27.1035H40.8584H41.8584V20.9072H40.8584ZM40.8584 27.1035H39.8584C39.8584 31.6157 39.3865 34.747 38.5405 36.6243L39.4521 37.0352L40.3638 37.4461C41.3928 35.1631 41.8584 31.6734 41.8584 27.1035H40.8584ZM39.4521 37.0352L38.5405 36.6243C37.7243 38.435 36.2056 39.8752 33.8624 40.9105L34.2666 41.8252L34.6708 42.7399C37.3667 41.5487 39.3049 39.7955 40.3638 37.4461L39.4521 37.0352ZM34.2666 41.8252L33.8585 40.9123C31.5432 41.9473 28.431 42.4951 24.4668 42.4951V43.4951V44.4951C28.5885 44.4951 32.0096 43.9296 34.6747 42.7381L34.2666 41.8252ZM24.4668 43.4951V42.4951H19.501V43.4951V44.4951H24.4668V43.4951ZM19.501 43.4951H18.501V72.1475H19.501H20.501V43.4951H19.501ZM19.501 72.1475V71.1475H1V72.1475V73.1475H19.501V72.1475ZM1 72.1475H2V1H1H0V72.1475H1ZM19.501 13.1729H18.501V31.2783H19.501H20.501V13.1729H19.501ZM19.501 31.2783L19.4455 32.2768C19.9848 32.3067 20.4584 32.3223 20.8633 32.3223V31.3223V30.3223C20.5064 30.3223 20.0718 30.3085 19.5564 30.2799L19.501 31.2783ZM20.8633 31.3223V32.3223C22.6778 32.3223 24.2379 31.8898 25.1652 30.7096L24.3789 30.0918L23.5926 29.474C23.2308 29.9344 22.4472 30.3223 20.8633 30.3223V31.3223ZM24.3789 30.0918L25.1624 30.7132C25.6434 30.1068 25.9371 29.2772 26.1188 28.337C26.3036 27.3807 26.3896 26.2169 26.3896 24.8623H25.3896H24.3896C24.3896 26.1445 24.3072 27.1706 24.1551 27.9575C23.9999 28.7604 23.7883 29.2272 23.5954 29.4704L24.3789 30.0918ZM25.3896 24.8623H26.3896V19.0176H25.3896H24.3896V24.8623H25.3896ZM25.3896 19.0176H26.3896C26.3896 17.7576 26.2918 16.6686 26.0762 15.7733C25.8634 14.8893 25.5141 14.1025 24.9402 13.5507L24.2471 14.2715L23.554 14.9923C23.7417 15.1729 23.9637 15.5433 24.1318 16.2414C24.2971 16.9281 24.3896 17.8459 24.3896 19.0176H25.3896ZM24.2471 14.2715L24.9402 13.5507C24.3772 13.0094 23.5949 12.677 22.7148 12.4733C21.8237 12.267 20.7456 12.1729 19.501 12.1729V13.1729V14.1729C20.6587 14.1729 21.5728 14.2618 22.2637 14.4217C22.9657 14.5842 23.3552 14.8012 23.554 14.9923L24.2471 14.2715ZM63.9297 1H64.9297V0H63.9297V1ZM63.9297 10.2725V11.2725H64.9297V10.2725H63.9297ZM45.6484 10.2725H44.6484V11.2725H45.6484V10.2725ZM45.6484 1V0H44.6484V1H45.6484ZM63.9297 13.832H64.9297V12.832H63.9297V13.832ZM63.9297 72.1475V73.1475H64.9297V72.1475H63.9297ZM45.6484 72.1475H44.6484V73.1475H45.6484V72.1475ZM45.6484 13.832V12.832H44.6484V13.832H45.6484ZM63.9297 1H62.9297V10.2725H63.9297H64.9297V1H63.9297ZM63.9297 10.2725V9.27246H45.6484V10.2725V11.2725H63.9297V10.2725ZM45.6484 10.2725H46.6484V1H45.6484H44.6484V10.2725H45.6484ZM45.6484 1V2H63.9297V1V0H45.6484V1ZM63.9297 13.832H62.9297V72.1475H63.9297H64.9297V13.832H63.9297ZM63.9297 72.1475V71.1475H45.6484V72.1475V73.1475H63.9297V72.1475ZM45.6484 72.1475H46.6484V13.832H45.6484H44.6484V72.1475H45.6484ZM45.6484 13.832V14.832H63.9297V13.832V12.832H45.6484V13.832ZM112.182 1H113.182V0H112.182V1ZM112.182 72.1475V73.1475H113.182V72.1475H112.182ZM95.9658 72.1475L95.0074 72.4327L95.22 73.1475H95.9658V72.1475ZM86.3418 39.8037L87.3003 39.5185L85.3418 39.8037H86.3418ZM86.3418 72.1475V73.1475H87.3418V72.1475H86.3418ZM70.873 72.1475H69.873V73.1475H70.873V72.1475ZM70.873 1V0H69.873V1H70.873ZM86.3418 1L87.2932 0.692009L87.0692 0H86.3418V1ZM96.7129 33.0361L95.7615 33.3441L97.7129 33.0361H96.7129ZM96.7129 1V0H95.7129V1H96.7129ZM112.182 1H111.182V72.1475H112.182H113.182V1H112.182ZM112.182 72.1475V71.1475H95.9658V72.1475V73.1475H112.182V72.1475ZM95.9658 72.1475L96.9243 71.8623L87.3003 39.5185L86.3418 39.8037L85.3833 40.0889L95.0074 72.4327L95.9658 72.1475ZM86.3418 39.8037H85.3418V72.1475H86.3418H87.3418V39.8037H86.3418ZM86.3418 72.1475V71.1475H70.873V72.1475V73.1475H86.3418V72.1475ZM70.873 72.1475H71.873V1H70.873H69.873V72.1475H70.873ZM70.873 1V2H86.3418V1V0H70.873V1ZM86.3418 1L85.3904 1.30799L95.7615 33.3441L96.7129 33.0361L97.6643 32.7281L87.2932 0.692009L86.3418 1ZM96.7129 33.0361H97.7129V1H96.7129H95.7129V33.0361H96.7129ZM96.7129 1V2H112.182V1V0H96.7129V1ZM160.961 1H161.961V0H160.961V1ZM160.961 72.1475V73.1475H161.961V72.1475H160.961ZM144.745 72.1475L143.787 72.4327L143.999 73.1475H144.745V72.1475ZM135.121 39.8037L136.08 39.5185L134.121 39.8037H135.121ZM135.121 72.1475V73.1475H136.121V72.1475H135.121ZM119.652 72.1475H118.652V73.1475H119.652V72.1475ZM119.652 1V0H118.652V1H119.652ZM135.121 1L136.072 0.692009L135.848 0H135.121V1ZM145.492 33.0361L144.541 33.3441L146.492 33.0361H145.492ZM145.492 1V0H144.492V1H145.492ZM160.961 1H159.961V72.1475H160.961H161.961V1H160.961ZM160.961 72.1475V71.1475H144.745V72.1475V73.1475H160.961V72.1475ZM144.745 72.1475L145.704 71.8623L136.08 39.5185L135.121 39.8037L134.163 40.0889L143.787 72.4327L144.745 72.1475ZM135.121 39.8037H134.121V72.1475H135.121H136.121V39.8037H135.121ZM135.121 72.1475V71.1475H119.652V72.1475V73.1475H135.121V72.1475ZM119.652 72.1475H120.652V1H119.652H118.652V72.1475H119.652ZM119.652 1V2H135.121V1V0H119.652V1ZM135.121 1L134.17 1.30799L144.541 33.3441L145.492 33.0361L146.444 32.7281L136.072 0.692009L135.121 1ZM145.492 33.0361H146.492V1H145.492H144.492V33.0361H145.492ZM145.492 1V2H160.961V1V0H145.492V1ZM168.432 1V0H167.432V1H168.432ZM199.281 1H200.281V0H199.281V1ZM199.281 15.2383V16.2383H200.281V15.2383H199.281ZM186.933 15.2383V14.2383H185.933V15.2383H186.933ZM186.933 28.7295H185.933V29.7295H186.933V28.7295ZM198.49 28.7295H199.49V27.7295H198.49V28.7295ZM198.49 42.2646V43.2646H199.49V42.2646H198.49ZM186.933 42.2646V41.2646H185.933V42.2646H186.933ZM186.933 57.9092H185.933V58.9092H186.933V57.9092ZM200.512 57.9092H201.512V56.9092H200.512V57.9092ZM200.512 72.1475V73.1475H201.512V72.1475H200.512ZM168.432 72.1475H167.432V73.1475H168.432V72.1475ZM168.432 1V2H199.281V1V0H168.432V1ZM199.281 1H198.281V15.2383H199.281H200.281V1H199.281ZM199.281 15.2383V14.2383H186.933V15.2383V16.2383H199.281V15.2383ZM186.933 15.2383H185.933V28.7295H186.933H187.933V15.2383H186.933ZM186.933 28.7295V29.7295H198.49V28.7295V27.7295H186.933V28.7295ZM198.49 28.7295H197.49V42.2646H198.49H199.49V28.7295H198.49ZM198.49 42.2646V41.2646H186.933V42.2646V43.2646H198.49V42.2646ZM186.933 42.2646H185.933V57.9092H186.933H187.933V42.2646H186.933ZM186.933 57.9092V58.9092H200.512V57.9092V56.9092H186.933V57.9092ZM200.512 57.9092H199.512V72.1475H200.512H201.512V57.9092H200.512ZM200.512 72.1475V71.1475H168.432V72.1475V73.1475H200.512V72.1475ZM168.432 72.1475H169.432V1H168.432H167.432V72.1475H168.432ZM205.873 1V0H204.873V1H205.873ZM237.821 2.23047L237.568 3.1979L237.57 3.19846L237.821 2.23047ZM248.104 12.5576L247.12 12.7321L247.12 12.7343L248.104 12.5576ZM247.797 63.8418L246.835 63.5688L246.832 63.5776L247.797 63.8418ZM244.677 68.8955L245.303 69.6749L245.312 69.6674L244.677 68.8955ZM239.14 71.4443L239.348 72.4224L239.361 72.4196L239.14 71.4443ZM205.873 72.1475H204.873V73.1475H205.873V72.1475ZM224.374 13.1729V12.1729H223.374V13.1729H224.374ZM224.374 59.9746H223.374V60.9746H224.374V59.9746ZM229.296 58.3926L230.16 58.8965L230.166 58.8862L229.296 58.3926ZM228.505 13.832L227.99 14.6895L228.003 14.6972L228.016 14.7045L228.505 13.832ZM205.873 1V2H219.716V1V0H205.873V1ZM219.716 1V2C228.666 2 234.576 2.41488 237.568 3.19789L237.821 2.23047L238.074 1.26305C234.797 0.405434 228.637 0 219.716 0V1ZM237.821 2.23047L237.57 3.19846C240.6 3.98389 242.803 5.24887 244.276 6.93195L245.028 6.27344L245.781 5.61493C243.972 3.548 241.371 2.11767 238.072 1.26247L237.821 2.23047ZM245.028 6.27344L244.276 6.93195C245.804 8.67834 246.743 10.608 247.12 12.7321L248.104 12.5576L249.089 12.3831C248.645 9.87831 247.534 7.61854 245.781 5.61493L245.028 6.27344ZM248.104 12.5576L247.12 12.7343C247.512 14.9179 247.72 19.3415 247.72 26.0928H248.72H249.72C249.72 19.3674 249.517 14.7676 249.089 12.381L248.104 12.5576ZM248.72 26.0928H247.72V51.0098H248.72H249.72V26.0928H248.72ZM248.72 51.0098H247.72C247.72 57.4149 247.406 61.5551 246.835 63.5688L247.797 63.8418L248.759 64.1148C249.418 61.7926 249.72 57.378 249.72 51.0098H248.72ZM247.797 63.8418L246.832 63.5776C246.293 65.5472 245.353 67.0428 244.041 68.1236L244.677 68.8955L245.312 69.6674C246.988 68.2872 248.129 66.4138 248.761 64.106L247.797 63.8418ZM244.677 68.8955L244.05 68.1161C242.694 69.2067 240.993 69.9988 238.919 70.4691L239.14 71.4443L239.361 72.4196C241.68 71.8938 243.672 70.9866 245.303 69.6749L244.677 68.8955ZM239.14 71.4443L238.931 70.4663C236.84 70.9124 233.615 71.1475 229.208 71.1475V72.1475V73.1475C233.648 73.1475 237.045 72.9138 239.348 72.4223L239.14 71.4443ZM229.208 72.1475V71.1475H205.873V72.1475V73.1475H229.208V72.1475ZM205.873 72.1475H206.873V1H205.873H204.873V72.1475H205.873ZM224.374 13.1729H223.374V59.9746H224.374H225.374V13.1729H224.374ZM224.374 59.9746V60.9746C225.761 60.9746 226.952 60.839 227.91 60.5311C228.869 60.2229 229.685 59.7104 230.16 58.8964L229.296 58.3926L228.432 57.8887C228.292 58.1294 227.98 58.408 227.298 58.6271C226.615 58.8465 225.653 58.9746 224.374 58.9746V59.9746ZM229.296 58.3926L230.166 58.8862C230.586 58.1453 230.829 56.9562 230.983 55.4983C231.142 53.9913 231.219 52.037 231.219 49.6475H230.219H229.219C229.219 52.004 229.142 53.8803 228.994 55.2884C228.84 56.7455 228.621 57.5558 228.426 57.899L229.296 58.3926ZM230.219 49.6475H231.219V22.0059H230.219H229.219V49.6475H230.219ZM230.219 22.0059H231.219C231.219 18.8142 231.121 16.628 230.887 15.5893L229.911 15.8096L228.936 16.0298C229.111 16.8075 229.219 18.7522 229.219 22.0059H230.219ZM229.911 15.8096L230.887 15.5893C230.627 14.4382 230.002 13.5243 228.993 12.9595L228.505 13.832L228.016 14.7045C228.473 14.9601 228.785 15.3646 228.936 16.0298L229.911 15.8096ZM228.505 13.832L229.019 12.9745C228.496 12.6605 227.825 12.469 227.08 12.3501C226.322 12.2292 225.416 12.1729 224.374 12.1729V13.1729V14.1729C225.353 14.1729 226.146 14.2264 226.765 14.3252C227.397 14.426 227.781 14.5641 227.99 14.6895L228.505 13.832Z" fill="black" mask="url(#path-2-outside-1_0_1)"/>
</svg>
