<svg width="96" height="96" viewBox="0 0 96 96" fill="none" xmlns="http://www.w3.org/2000/svg">
<circle cx="48" cy="48" r="48" fill="#332352"/>
<path d="M38.3477 10.2041H60.293C66.2279 10.2041 70.7826 10.6699 73.957 11.6016C77.166 12.5332 79.5641 13.8789 81.1514 15.6387C82.7731 17.3984 83.86 19.5378 84.4121 22.0566C84.9987 24.541 85.292 28.4056 85.292 33.6504V40.9482C85.292 46.2965 84.7399 50.1956 83.6357 52.6455C82.5316 55.0954 80.4958 56.9759 77.5283 58.2871C74.5954 59.5983 70.748 60.2539 65.9863 60.2539H60.1377V94H38.3477V10.2041ZM60.1377 24.541V45.8652C60.7588 45.8997 61.2936 45.917 61.7422 45.917C63.7435 45.917 65.1237 45.4339 65.8828 44.4678C66.6764 43.4671 67.0732 41.4141 67.0732 38.3086V31.4248C67.0732 28.5609 66.6247 26.6976 65.7275 25.835C64.8304 24.9723 62.9671 24.541 60.1377 24.541Z" fill="black"/>
<mask id="path-3-outside-1_0_1" maskUnits="userSpaceOnUse" x="26" y="5" width="50" height="86" fill="black">
<rect fill="white" x="26" y="5" width="50" height="86"/>
<path d="M27.3477 6.2041H49.293C55.2279 6.2041 59.7826 6.66992 62.957 7.60156C66.166 8.5332 68.5641 9.87891 70.1514 11.6387C71.7731 13.3984 72.86 15.5378 73.4121 18.0566C73.9987 20.541 74.292 24.4056 74.292 29.6504V36.9482C74.292 42.2965 73.7399 46.1956 72.6357 48.6455C71.5316 51.0954 69.4958 52.9759 66.5283 54.2871C63.5954 55.5983 59.748 56.2539 54.9863 56.2539H49.1377V90H27.3477V6.2041ZM49.1377 20.541V41.8652C49.7588 41.8997 50.2936 41.917 50.7422 41.917C52.7435 41.917 54.1237 41.4339 54.8828 40.4678C55.6764 39.4671 56.0732 37.4141 56.0732 34.3086V27.4248C56.0732 24.5609 55.6247 22.6976 54.7275 21.835C53.8304 20.9723 51.9671 20.541 49.1377 20.541Z"/>
</mask>
<path d="M27.3477 6.2041H49.293C55.2279 6.2041 59.7826 6.66992 62.957 7.60156C66.166 8.5332 68.5641 9.87891 70.1514 11.6387C71.7731 13.3984 72.86 15.5378 73.4121 18.0566C73.9987 20.541 74.292 24.4056 74.292 29.6504V36.9482C74.292 42.2965 73.7399 46.1956 72.6357 48.6455C71.5316 51.0954 69.4958 52.9759 66.5283 54.2871C63.5954 55.5983 59.748 56.2539 54.9863 56.2539H49.1377V90H27.3477V6.2041ZM49.1377 20.541V41.8652C49.7588 41.8997 50.2936 41.917 50.7422 41.917C52.7435 41.917 54.1237 41.4339 54.8828 40.4678C55.6764 39.4671 56.0732 37.4141 56.0732 34.3086V27.4248C56.0732 24.5609 55.6247 22.6976 54.7275 21.835C53.8304 20.9723 51.9671 20.541 49.1377 20.541Z" fill="#A985FF"/>
<path d="M27.3477 6.2041V5.2041H26.3477V6.2041H27.3477ZM62.957 7.60156L62.6754 8.5611L62.6782 8.56191L62.957 7.60156ZM70.1514 11.6387L69.4088 12.3085L69.416 12.3164L70.1514 11.6387ZM73.4121 18.0566L72.4353 18.2707L72.437 18.2786L72.4389 18.2864L73.4121 18.0566ZM66.5283 54.2871L66.1242 53.3724L66.1202 53.3742L66.5283 54.2871ZM49.1377 56.2539V55.2539H48.1377V56.2539H49.1377ZM49.1377 90V91H50.1377V90H49.1377ZM27.3477 90H26.3477V91H27.3477V90ZM49.1377 20.541V19.541H48.1377V20.541H49.1377ZM49.1377 41.8652H48.1377V42.8112L49.0822 42.8637L49.1377 41.8652ZM54.8828 40.4678L54.0993 39.8464L54.0965 39.85L54.8828 40.4678ZM54.7275 21.835L54.0344 22.5558L54.7275 21.835ZM27.3477 6.2041V7.2041H49.293V6.2041V5.2041H27.3477V6.2041ZM49.293 6.2041V7.2041C55.1953 7.2041 59.6377 7.66957 62.6754 8.5611L62.957 7.60156L63.2386 6.64203C59.9274 5.67027 55.2604 5.2041 49.293 5.2041V6.2041ZM62.957 7.60156L62.6782 8.56191C65.7784 9.46198 67.9872 10.7323 69.4088 12.3084L70.1514 11.6387L70.8939 10.9689C69.1411 9.02551 66.5536 7.60443 63.2358 6.64121L62.957 7.60156ZM70.1514 11.6387L69.416 12.3164C70.9083 13.9357 71.9181 15.9112 72.4353 18.2707L73.4121 18.0566L74.3889 17.8425C73.8019 15.1644 72.6379 12.8612 70.8867 10.961L70.1514 11.6387ZM73.4121 18.0566L72.4389 18.2864C72.9974 20.6521 73.292 24.4197 73.292 29.6504H74.292H75.292C75.292 24.3915 75 20.43 74.3853 17.8269L73.4121 18.0566ZM74.292 29.6504H73.292V36.9482H74.292H75.292V29.6504H74.292ZM74.292 36.9482H73.292C73.292 42.2677 72.7368 45.9876 71.7241 48.2346L72.6357 48.6455L73.5474 49.0564C74.743 46.4037 75.292 42.3254 75.292 36.9482H74.292ZM72.6357 48.6455L71.7241 48.2346C70.7413 50.4152 68.9152 52.1392 66.1242 53.3724L66.5283 54.2871L66.9325 55.2018C70.0763 53.8127 72.3219 51.7756 73.5474 49.0564L72.6357 48.6455ZM66.5283 54.2871L66.1202 53.3742C63.3622 54.6072 59.6693 55.2539 54.9863 55.2539V56.2539V57.2539C59.8268 57.2539 63.8286 56.5894 66.9365 55.2L66.5283 54.2871ZM54.9863 56.2539V55.2539H49.1377V56.2539V57.2539H54.9863V56.2539ZM49.1377 56.2539H48.1377V90H49.1377H50.1377V56.2539H49.1377ZM49.1377 90V89H27.3477V90V91H49.1377V90ZM27.3477 90H28.3477V6.2041H27.3477H26.3477V90H27.3477ZM49.1377 20.541H48.1377V41.8652H49.1377H50.1377V20.541H49.1377ZM49.1377 41.8652L49.0822 42.8637C49.7153 42.8989 50.2696 42.917 50.7422 42.917V41.917V40.917C50.3176 40.917 49.8023 40.9006 49.1932 40.8668L49.1377 41.8652ZM50.7422 41.917V42.917C52.8587 42.917 54.6273 42.4116 55.6691 41.0856L54.8828 40.4678L54.0965 39.85C53.6201 40.4562 52.6282 40.917 50.7422 40.917V41.917ZM54.8828 40.4678L55.6663 41.0892C56.2072 40.4072 56.5458 39.4624 56.7575 38.3673C56.9722 37.256 57.0732 35.8975 57.0732 34.3086H56.0732H55.0732C55.0732 35.8251 54.9758 37.0459 54.7938 37.9877C54.6087 38.9456 54.3521 39.5277 54.0993 39.8464L54.8828 40.4678ZM56.0732 34.3086H57.0732V27.4248H56.0732H55.0732V34.3086H56.0732ZM56.0732 27.4248H57.0732C57.0732 25.9487 56.9584 24.6813 56.709 23.6453C56.4624 22.6208 56.0623 21.7311 55.4206 21.1141L54.7275 21.835L54.0344 22.5558C54.2899 22.8014 54.5627 23.2747 54.7646 24.1134C54.9638 24.9408 55.0732 26.037 55.0732 27.4248H56.0732ZM54.7275 21.835L55.4206 21.1141C54.79 20.5077 53.9035 20.1265 52.8827 19.8903C51.8511 19.6515 50.5958 19.541 49.1377 19.541V20.541V21.541C50.509 21.541 51.6001 21.6462 52.4317 21.8387C53.2743 22.0338 53.7679 22.2996 54.0344 22.5558L54.7275 21.835Z" fill="black" mask="url(#path-3-outside-1_0_1)"/>
</svg>
